<svg width="34" height="34" viewBox="0 0 34 34" fill="none" xmlns="http://www.w3.org/2000/svg">
<path d="M33.3243 17C33.3243 26.0157 26.0157 33.3243 17 33.3243C7.98432 33.3243 0.675676 26.0157 0.675676 17C0.675676 7.98432 7.98432 0.675676 17 0.675676C26.0157 0.675676 33.3243 7.98432 33.3243 17Z" stroke="white" stroke-width="1.35135" stroke-miterlimit="10"/>
<path d="M21.3876 15.3465C21.5138 15.4387 21.6238 15.4863 21.7353 15.5056L22.1661 17.4488L23.3947 15.6959L23.1511 15.5443L23.0991 15.513C23.3383 14.9451 23.5166 14.3519 23.3472 14.1051C23.1347 13.8107 22.2805 12.9201 22.221 12.8532C21.912 12.5216 21.4975 12.6554 21.2687 12.9661C21.1721 13.1148 21.0458 13.2456 20.9805 13.3854C20.9819 13.384 20.2971 14.5689 21.3876 15.3465Z" fill="white"/>
<path d="M11.6277 27.4368C11.2622 26.6875 11.8342 25.4891 11.8491 25.4921C11.907 25.504 12.011 25.5204 12.011 25.5204L12.112 25.7969C12.112 25.7969 12.1432 25.7999 12.164 25.8043C13.8547 26.13 15.7668 26.0556 16.1382 25.7879C17.0549 25.1338 17.9552 23.4403 18.239 22.6048C18.239 22.6048 19.9624 21.5997 21.3277 21.7588C22.3172 21.8703 22.7198 22.7475 22.7168 24.0321C22.7822 24.0321 23.1462 24.0708 23.1462 24.0708C23.1462 24.0708 23.115 24.2105 23.109 24.2744C23.109 24.3414 22.953 24.5064 22.9679 24.5688C23.0764 25.0683 23.3111 25.617 23.8266 25.8608C25.6228 25.4326 27.3402 23.7481 27.3402 23.7481L26.6628 23.1593C26.1369 23.5905 25.3242 23.9548 24.7849 24.0128C24.7849 24.0128 25.3227 20.0237 24.7552 19.4885C24.0629 18.8268 23.0229 18.4893 22.4182 18.5786L22.8312 20.4192L15.3315 22.2301C15.3315 22.2301 14.914 21.118 14.7907 20.7448C14.8026 21.6577 14.1771 23.1133 13.9171 23.4017C13.2961 24.1361 12.1804 24.1346 11.4345 23.9682L10.7689 23.8002C10.7689 23.8002 10.2059 24.5867 9.99791 25.0372C9.08125 27.083 10.9621 27.9364 10.9621 27.9364H25.6867C25.3851 27.8249 22.0795 26.8718 19.0962 26.8718C16.3804 26.8748 13.4892 26.9997 11.6277 27.4368Z" fill="white"/>
<path d="M13.4713 19.8512C13.4728 19.8512 13.4757 19.8512 13.4801 19.8512C13.4816 19.8512 13.4831 19.8512 13.4831 19.8512C13.4876 19.8512 13.492 19.8512 13.498 19.8512C13.4995 19.8512 13.5024 19.8512 13.5039 19.8512C13.5099 19.8512 13.5158 19.8512 13.5233 19.8496C13.5277 19.8496 13.5307 19.8496 13.5352 19.8496C13.5425 19.8496 13.55 19.8481 13.5589 19.8481C13.5634 19.8481 13.5678 19.8481 13.5723 19.8467C13.5827 19.8467 13.5931 19.8452 13.6034 19.8452C13.6079 19.8452 13.6124 19.8452 13.6183 19.8437C13.6302 19.8422 13.6436 19.8422 13.6554 19.8407C13.6599 19.8407 13.6644 19.8407 13.6688 19.8392C13.6852 19.8378 13.7015 19.8363 13.7193 19.8348C13.7223 19.8348 13.7238 19.8348 13.7268 19.8348C13.7892 19.8303 13.8605 19.8229 13.9378 19.8154C13.9422 19.8154 13.9466 19.814 13.9511 19.814C13.9719 19.811 13.9942 19.8095 14.015 19.8065C14.0209 19.8065 14.0269 19.805 14.0328 19.805C14.0537 19.8021 14.0759 19.8006 14.0967 19.7976C14.1042 19.7961 14.1101 19.7961 14.1175 19.7946C14.1383 19.7917 14.1591 19.7887 14.1814 19.7857C14.1888 19.7843 14.1962 19.7843 14.2037 19.7828C14.2245 19.7798 14.2468 19.7768 14.2691 19.7739C14.2765 19.7723 14.2839 19.7723 14.2913 19.7708C14.3151 19.7679 14.3389 19.7634 14.3626 19.7605C14.3686 19.759 14.3731 19.759 14.379 19.7575C14.7935 19.6921 15.2318 19.5835 15.4219 19.4125C15.4294 19.4081 16.0905 18.2514 15.4784 17.7994C15.2942 17.6418 15.0134 17.6998 14.1057 17.7325C14.0046 17.7369 13.911 17.7384 13.8249 17.7384C13.7832 17.7384 13.7446 17.7384 13.7075 17.7369C13.7045 17.7369 13.7001 17.7369 13.6971 17.7369C13.6599 17.7354 13.6243 17.7354 13.5901 17.734C13.5872 17.734 13.5842 17.734 13.5812 17.734C13.5455 17.7325 13.5128 17.731 13.4801 17.728C13.4786 17.728 13.4786 17.728 13.4772 17.728C13.2098 17.7102 13.0434 17.6745 12.9543 17.6507H12.9528C12.9424 17.6477 12.9334 17.6447 12.926 17.6433C12.9245 17.6433 12.923 17.6418 12.923 17.6418C12.9156 17.6388 12.9096 17.6373 12.9037 17.6358C12.9022 17.6358 12.9007 17.6343 12.8992 17.6343C12.8948 17.6329 12.8904 17.6314 12.8874 17.6299C12.8859 17.6299 12.8844 17.6284 12.8829 17.6284C12.8814 17.6269 12.8785 17.6269 12.877 17.6254C12.8755 17.6254 12.874 17.6239 12.874 17.6239L13.6139 17.0783L13.0003 14.6191C13.0003 14.6191 18.5062 13.4431 19.3709 13.168C19.3754 13.1666 19.3813 13.1651 19.3858 13.1635L19.3843 13.1576C18.6117 12.4499 17.4529 11.9072 15.5497 12.102L15.159 11.7303C15.3878 11.6099 15.4992 11.595 15.6908 11.4002C15.0907 10.1617 14.8128 8.81772 14.8024 8.07726C15.2466 7.95388 17.0102 7.80074 17.386 5.85156C17.386 5.85156 16.1277 6.70944 15.1546 6.21136C13.5099 5.36836 12.3525 6.89975 12.3525 6.89975C12.3525 6.89975 11.2383 6.94732 11.265 7.61935C11.3393 9.62208 11.9841 11.0881 13.2276 12.7963C11.7107 13.4654 10.956 14.1151 10.2503 15.1529C9.30833 16.5282 8.83594 18.3569 8.83594 18.3569C8.83594 18.3569 10.1522 19.9567 13.2306 20.2927C13.2945 20.0474 13.4178 19.9849 13.4713 19.8512Z" fill="white"/>
</svg>
